<svg xmlns="http://www.w3.org/2000/svg" viewBox="0 0 160 48"><path d="M4.8 0h150.4a4.8 4.8 0 0 1 4.8 4.8v38.4a4.8 4.8 0 0 1-4.8 4.8H4.8A4.8 4.8 0 0 1 0 43.2V4.8A4.8 4.8 0 0 1 4.8 0z" fill="#2f3152"/><path d="M35.44 23.74a7 7 0 0 1 3.32-5.84 7.14 7.14 0 0 0-5.62-3c-2.37-.25-4.66 1.4-5.87 1.4s-3.08-1.38-5.08-1.34a7.49 7.49 0 0 0-6.31 3.83c-2.72 4.7-.7 11.63 1.92 15.43 1.3 1.86 2.83 3.94 4.83 3.87s2.7-1.24 5.05-1.24 3 1.24 5.06 1.2 3.42-1.87 4.68-3.75a15.45 15.45 0 0 0 2.14-4.35 6.7 6.7 0 0 1-4.12-6.18zM31.6 12.37a6.85 6.85 0 0 0 1.57-4.91 7 7 0 0 0-4.52 2.33A6.53 6.53 0 0 0 27 14.52a5.76 5.76 0 0 0 4.56-2.15zM146.15 31.5a6.28 6.28 0 0 1-.09 1.16h-7.7a3.32 3.32 0 0 0 1.12 2.61 3.78 3.78 0 0 0 2.51.81 8.66 8.66 0 0 0 3.12-.55l.4 1.78a9.72 9.72 0 0 1-3.87.71 5.62 5.62 0 0 1-4.22-1.58 5.81 5.81 0 0 1-1.53-4.23 6.59 6.59 0 0 1 1.43-4.33 4.91 4.91 0 0 1 4-1.85 4.3 4.3 0 0 1 3.78 1.85 6.2 6.2 0 0 1 1 3.62zm-2.45-.66a3.52 3.52 0 0 0-.49-2 2.25 2.25 0 0 0-2.05-1.06 2.42 2.42 0 0 0-2 1 3.8 3.8 0 0 0-.76 2zm-9.02-2.3a4.28 4.28 0 0 0-.81-.07 2.43 2.43 0 0 0-2.09 1 3.8 3.8 0 0 0-.64 2.27v6.05h-2.57v-7.9l-.1-3.63h2.24l.1 2.2h.07a4 4 0 0 1 1.28-1.82 3.12 3.12 0 0 1 1.86-.62 4.16 4.16 0 0 1 .64.05v2.44zM126.34 32a6.31 6.31 0 0 1-1.52 4.36 5.43 5.43 0 0 1-4.23 1.76 5.16 5.16 0 0 1-4-1.69 6.13 6.13 0 0 1-1.59-4.29 6.25 6.25 0 0 1 1.56-4.38 5.38 5.38 0 0 1 4.19-1.7 5.3 5.3 0 0 1 4.09 1.68 6.05 6.05 0 0 1 1.5 4.26zm-2.66.1a5.19 5.19 0 0 0-.68-2.79 2.51 2.51 0 0 0-2.3-1.37 2.58 2.58 0 0 0-2.35 1.37 5.28 5.28 0 0 0-.69 2.78 5.13 5.13 0 0 0 .69 2.73 2.62 2.62 0 0 0 4.63 0 5.19 5.19 0 0 0 .71-2.75zm-10.1-3.88h-2.83v5.6q0 2.13 1.5 2.13a4.63 4.63 0 0 0 1.14-.12l.07 1.95a5.82 5.82 0 0 1-2 .28 3.09 3.09 0 0 1-2.37-.92 4.54 4.54 0 0 1-.86-3.11v-5.8h-1.68V26.3h1.68v-2.1l2.52-.76v2.87h2.83v1.92zm-8.48 5.12a4.27 4.27 0 0 1-1.42 3.31A6.31 6.31 0 0 1 99.32 38a7.64 7.64 0 0 1-4.14-1l.6-2.14a7 7 0 0 0 3.71 1 3.5 3.5 0 0 0 2.26-.65 2.14 2.14 0 0 0 .8-1.74 2.23 2.23 0 0 0-.66-1.64 6.37 6.37 0 0 0-2.21-1.24c-2.8-1-4.2-2.57-4.2-4.57a4.06 4.06 0 0 1 1.48-3.23 5.81 5.81 0 0 1 3.92-1.26 7.74 7.74 0 0 1 3.63.76l-.64 2.08a6.29 6.29 0 0 0-3.06-.73 3.13 3.13 0 0 0-2.12.66 2 2 0 0 0 .1 3 8.3 8.3 0 0 0 2.33 1.24 7.94 7.94 0 0 1 3 1.94 4.08 4.08 0 0 1 1 2.77zM90.26 31.9a6.55 6.55 0 0 1-1.59 4.64 4.67 4.67 0 0 1-3.54 1.52 3.53 3.53 0 0 1-3.27-1.64v6.07h-2.62V30.1l-.1-3.8h2.25l.15 1.82a4.58 4.58 0 0 1 7.31-.45 6.36 6.36 0 0 1 1.36 4.25zm-2.6.1a4.69 4.69 0 0 0-.76-2.77 2.71 2.71 0 0 0-4-.51 2.9 2.9 0 0 0-1 1.65 3.23 3.23 0 0 0-.12.78v1.92a3.11 3.11 0 0 0 .77 2.12 2.57 2.57 0 0 0 2 .86 2.62 2.62 0 0 0 2.25-1.11 4.88 4.88 0 0 0 .86-2.94zM77 31.9a6.51 6.51 0 0 1-1.6 4.64 4.66 4.66 0 0 1-3.53 1.52 3.53 3.53 0 0 1-3.28-1.64v6.07H66V30.1l-.1-3.8h2.26l.14 1.82a4.57 4.57 0 0 1 7.3-.45 6.36 6.36 0 0 1 1.4 4.26zm-2.63.1a4.69 4.69 0 0 0-.76-2.77 2.62 2.62 0 0 0-2.23-1.14 2.65 2.65 0 0 0-1.72.63 2.9 2.9 0 0 0-1 1.65 3.23 3.23 0 0 0-.12.78v1.92a3.11 3.11 0 0 0 .77 2.12 2.6 2.6 0 0 0 2 .86 2.63 2.63 0 0 0 2.26-1.11 4.94 4.94 0 0 0 .8-2.94zm-10.64 5.8H61l-1.5-4.7h-5.2l-1.42 4.7h-2.66l5.15-16h3.18l5.18 16zm-4.68-6.66L57.7 27c-.14-.43-.4-1.43-.8-3l-.76 3-1.33 4.17zM145 13a2.94 2.94 0 0 1 0 .57h-3.78a1.65 1.65 0 0 0 .55 1.28 1.84 1.84 0 0 0 1.23.4 4.17 4.17 0 0 0 1.53-.27l.2.88a4.81 4.81 0 0 1-1.9.35 2.74 2.74 0 0 1-2.07-.78 2.81 2.81 0 0 1-.75-2.08 3.23 3.23 0 0 1 .7-2.13 2.4 2.4 0 0 1 2-.9 2.12 2.12 0 0 1 1.85.9A3 3 0 0 1 145 13zm-1.2-.32a1.71 1.71 0 0 0-.24-1 1.09 1.09 0 0 0-1-.52 1.22 1.22 0 0 0-1 .51 2 2 0 0 0-.37 1zm-5.67 3.44h-1.26V12.9c0-1-.38-1.52-1.14-1.52a1.2 1.2 0 0 0-1.2.88 1.56 1.56 0 0 0-.06.46v3.4h-1.26V7.87h1.26v3.4a1.91 1.91 0 0 1 1.7-.93 1.76 1.76 0 0 1 1.3.51 2.54 2.54 0 0 1 .64 1.89v3.37zm-6.67-4.7h-1.4v2.74c0 .7.25 1 .74 1a2.23 2.23 0 0 0 .56-.06v1a3 3 0 0 1-1 .14 1.51 1.51 0 0 1-1.17-.46 2.21 2.21 0 0 1-.42-1.52V11.4H128v-.95h.83v-1l1.24-.38v1.4h1.4v.95zm-8.45 4.7h-1.3v-3.24q0-1.5-1.14-1.5a1.15 1.15 0 0 0-.91.41 1.48 1.48 0 0 0-.35 1v3.36H118v-4l-.05-1.62h1.1l.06.9a1.72 1.72 0 0 1 .65-.69 2.13 2.13 0 0 1 1.14-.32 1.79 1.79 0 0 1 1.32.52 2.46 2.46 0 0 1 .65 1.87v3.4zm-6.8-2.88a3.11 3.11 0 0 1-.75 2.15 2.68 2.68 0 0 1-2.08.86 2.56 2.56 0 0 1-2-.83 3 3 0 0 1-.74-2.08 3 3 0 0 1 .76-2.15 2.66 2.66 0 0 1 2.07-.84 2.57 2.57 0 0 1 2 .82 3 3 0 0 1 .73 2.07zm-1.3 0a2.53 2.53 0 0 0-.34-1.35 1.23 1.23 0 0 0-1.13-.67 1.27 1.27 0 0 0-1.16.67 2.67 2.67 0 0 0-.34 1.37 2.59 2.59 0 0 0 .34 1.34 1.3 1.3 0 0 0 1.15.68 1.26 1.26 0 0 0 1.13-.69 2.56 2.56 0 0 0 .35-1.35zm-9.48 2.88h-1.12v-.9a1.9 1.9 0 0 1-1.82 1 2.15 2.15 0 0 1-1.7-.8 3.09 3.09 0 0 1-.68-2.09 3.24 3.24 0 0 1 .74-2.22 2.24 2.24 0 0 1 1.75-.79 1.69 1.69 0 0 1 1.59.76v-3.2h1.26v8.25zm-1.3-2.4v-.94a2 2 0 0 0 0-.39 1.44 1.44 0 0 0-.45-.77 1.28 1.28 0 0 0-.85-.3 1.3 1.3 0 0 0-1.11.55 2.47 2.47 0 0 0-.4 1.44 2.22 2.22 0 0 0 .39 1.36 1.3 1.3 0 0 0 1.1.56 1.21 1.21 0 0 0 1-.47 1.52 1.52 0 0 0 .37-1zm-5.86 2.4H97.1l-.1-.65a2 2 0 0 1-1.66.78 1.7 1.7 0 0 1-1.35-.51 1.61 1.61 0 0 1-.45-1.16 1.76 1.76 0 0 1 .9-1.58 4.57 4.57 0 0 1 2.45-.53v-.1c0-.74-.4-1.12-1.18-1.12a2.64 2.64 0 0 0-1.48.42l-.24-.82a3.61 3.61 0 0 1 1.94-.49c1.5 0 2.23.78 2.23 2.34v2.08a9.36 9.36 0 0 0 .08 1.35zm-1.3-1.94v-.88c-1.4 0-2.1.36-2.1 1.14a.84.84 0 0 0 .25.67.86.86 0 0 0 .61.22 1.28 1.28 0 0 0 .77-.26 1.07 1.07 0 0 0 .44-.67 1.38 1.38 0 0 0 0-.22zm-4.8-.94a3.11 3.11 0 0 1-.75 2.15 2.68 2.68 0 0 1-2.08.86 2.56 2.56 0 0 1-2-.83 3 3 0 0 1-.74-2.08 3.09 3.09 0 0 1 .77-2.16 2.67 2.67 0 0 1 2.06-.83 2.57 2.57 0 0 1 2 .82 3 3 0 0 1 .73 2.07zm-1.3 0a2.53 2.53 0 0 0-.34-1.35 1.3 1.3 0 0 0-2.28 0 2.56 2.56 0 0 0-.34 1.37 2.5 2.5 0 0 0 .34 1.34 1.27 1.27 0 0 0 1.14.68 1.26 1.26 0 0 0 1.13-.69 2.56 2.56 0 0 0 .35-1.35zm-6.1 2.88H83.5V7.87h1.26v8.25zm-3.48 0H80v-3.24q0-1.5-1.14-1.5a1.17 1.17 0 0 0-.92.41 1.48 1.48 0 0 0-.35 1v3.36h-1.3v-5.62h1.1l.05.9a1.87 1.87 0 0 1 .65-.69 2.16 2.16 0 0 1 1.15-.32 1.8 1.8 0 0 1 1.32.52 2.5 2.5 0 0 1 .65 1.87v3.4zm-6.54-5.66l-1.77 5.66h-1.16L71 13.66a18 18 0 0 1-.46-1.82 12.43 12.43 0 0 1-.46 1.82l-.78 2.46h-1.14l-1.67-5.66h1.3l.64 2.7.4 1.82.47-1.8.8-2.7h1l.77 2.65.46 1.86q.14-.87.4-1.86l.7-2.65zm-9.45 2.78a3.15 3.15 0 0 1-.74 2.15 2.71 2.71 0 0 1-2.08.86 2.54 2.54 0 0 1-2-.83 3 3 0 0 1-.74-2.08 3.08 3.08 0 0 1 .76-2.16 2.68 2.68 0 0 1 2.06-.83 2.61 2.61 0 0 1 2 .82 3 3 0 0 1 .72 2.07zm-1.3 0a2.63 2.63 0 0 0-.34-1.35 1.25 1.25 0 0 0-1.13-.68 1.28 1.28 0 0 0-1.16.68 2.56 2.56 0 0 0-.32 1.42 2.59 2.59 0 0 0 .34 1.34 1.29 1.29 0 0 0 2.28 0 2.56 2.56 0 0 0 .38-1.36zM58.2 12a3.93 3.93 0 0 1-1.28 3.19 5.05 5.05 0 0 1-3.35 1 16.14 16.14 0 0 1-1.84-.09V8.38a13.4 13.4 0 0 1 2.17-.16 4.68 4.68 0 0 1 3.09.89A3.64 3.64 0 0 1 58.21 12zm-1.33 0a2.89 2.89 0 0 0-.73-2.11A2.88 2.88 0 0 0 54 9.21a5 5 0 0 0-1 .08v5.87a8 8 0 0 0 .85 0 3 3 0 0 0 2.24-.8 3.25 3.25 0 0 0 .79-2.34z" fill="#fff"/></svg>