<svg xmlns="http://www.w3.org/2000/svg" viewBox="0 0 160 48"><defs><linearGradient id="a" x1="-768.76" y1="555.77" x2="-770.06" y2="556.44" gradientTransform="matrix(15.55 0 0 30.08 11979.32 -16707.89)" gradientUnits="userSpaceOnUse"><stop offset="0" stop-color="#00a1ff"/><stop offset=".26" stop-color="#00beff"/><stop offset=".51" stop-color="#00d2ff"/><stop offset=".76" stop-color="#00dfff"/><stop offset="1" stop-color="#00e3ff"/></linearGradient><linearGradient id="b" x1="-754.42" y1="588.5" x2="-756.81" y2="588.5" gradientTransform="matrix(12.23 0 0 10.26 9264.68 -6015.43)" gradientUnits="userSpaceOnUse"><stop offset="0" stop-color="#ffe000"/><stop offset=".41" stop-color="#ffbd00"/><stop offset=".78" stop-color="orange"/><stop offset="1" stop-color="#ff9c00"/></linearGradient><linearGradient id="c" x1="-780.56" y1="571.77" x2="-781.93" y2="573.55" gradientTransform="matrix(20.07 0 0 15.43 15698.23 -8795.2)" gradientUnits="userSpaceOnUse"><stop offset="0" stop-color="#ff3a44"/><stop offset="1" stop-color="#c31162"/></linearGradient><linearGradient id="d" x1="-781.62" y1="571.06" x2="-781.01" y2="571.84" gradientTransform="matrix(20.07 0 0 15.43 15698.23 -8811.49)" gradientUnits="userSpaceOnUse"><stop offset="0" stop-color="#32a071"/><stop offset=".07" stop-color="#2da771"/><stop offset=".48" stop-color="#15cf74"/><stop offset=".8" stop-color="#06e775"/><stop offset="1" stop-color="#00f076"/></linearGradient></defs><path d="M4.8 0h150.4a4.81 4.81 0 0 1 4.8 4.81V43.2a4.81 4.81 0 0 1-4.81 4.81H4.8A4.81 4.81 0 0 1 0 43.19V4.8A4.81 4.81 0 0 1 4.81 0z" fill="#2f3152"/><path d="M128.08 37h2.25V22h-2.25zm20.22-9.6l-2.57 6.5h-.08L143 27.4h-2.42l4 9.1-2.3 5.06h2.34l6.17-14.15zm-12.73 7.9c-.74 0-1.76-.37-1.76-1.28 0-1.16 1.28-1.6 2.38-1.6a4 4 0 0 1 2.05.5 2.73 2.73 0 0 1-2.67 2.38zm.27-8.23a4.23 4.23 0 0 0-4 2.3l2 .83a2.12 2.12 0 0 1 2-1.1 2.16 2.16 0 0 1 2.4 1.9v.16a4.9 4.9 0 0 0-2.34-.58c-2.15 0-4.34 1.17-4.34 3.37a3.48 3.48 0 0 0 3.74 3.31 3.16 3.16 0 0 0 2.86-1.47h.08V37h2.16v-5.78c0-2.66-2-4.15-4.56-4.15zM122 29.23h-3.2V24.1h3.2a2.57 2.57 0 1 1 0 5.14zm-.1-7.23h-5.38v15h2.24v-5.68h3.14a4.67 4.67 0 1 0 0-9.32zM92.58 35.3a3.11 3.11 0 0 1 0-6.19 2.88 2.88 0 0 1 2.73 3.11 2.86 2.86 0 0 1-2.73 3.08zm2.58-7.06h-.08a3.56 3.56 0 0 0-2.7-1.14 5.11 5.11 0 0 0 0 10.21 3.51 3.51 0 0 0 2.7-1.16h.08v.74c0 2-1 3-2.74 3a2.81 2.81 0 0 1-2.57-1.82l-2 .82a4.87 4.87 0 0 0 4.53 3c2.64 0 4.87-1.55 4.87-5.3v-9.2h-2.1zM98.84 37h2.25V22h-2.25zm5.56-5a2.8 2.8 0 0 1 2.67-3 2 2 0 0 1 1.9 1.09zm7-1.7a4.77 4.77 0 0 0-4.4-3.2 4.86 4.86 0 0 0-4.83 5.11 5 5 0 0 0 5.08 5.1 5.08 5.08 0 0 0 4.26-2.26l-1.74-1.16a2.93 2.93 0 0 1-2.52 1.41 2.6 2.6 0 0 1-2.48-1.55l6.84-2.82zm-54.53-1.63v2.16h5.2a4.56 4.56 0 0 1-1.19 2.73 5.31 5.31 0 0 1-4 1.58 5.76 5.76 0 0 1 0-11.52 5.55 5.55 0 0 1 3.92 1.55l1.53-1.53a7.58 7.58 0 0 0-5.45-2.18 7.93 7.93 0 1 0 0 15.85 7.28 7.28 0 0 0 5.54-2.22A7.13 7.13 0 0 0 64.29 30a6.82 6.82 0 0 0-.11-1.35zM70.2 35.3a3.1 3.1 0 1 1 2.89-3.09 3 3 0 0 1-2.89 3.09zm0-8.2a5.11 5.11 0 1 0 5.14 5.11 5 5 0 0 0-5.14-5.11zm11.2 8.2a3.1 3.1 0 1 1 2.89-3.09 3 3 0 0 1-2.89 3.09zm0-8.2a5.11 5.11 0 1 0 5.14 5.11 5 5 0 0 0-5.14-5.11zM95.24 8.97v4.47l.03 1.04-3.4-5.5h-1.34v7.66h1.18v-5.78l3.56 5.8h1.17V8.97h-1.2zm-6.98 3.83a2.81 2.81 0 0 1-.78 2 2.54 2.54 0 0 1-1.9.8 2.58 2.58 0 0 1-1.9-.8 2.85 2.85 0 0 1-.78-2 2.83 2.83 0 0 1 .78-2 2.58 2.58 0 0 1 1.9-.8 2.54 2.54 0 0 1 1.9.8 2.81 2.81 0 0 1 .78 2m-2.68-4a3.7 3.7 0 0 0-2.77 1.2 4 4 0 0 0-1.11 2.8 4 4 0 0 0 1.11 2.84 3.89 3.89 0 0 0 5.54 0 4 4 0 0 0 1.11-2.84 3.94 3.94 0 0 0-1.11-2.8 3.7 3.7 0 0 0-2.77-1.2m-12 1.33h2.05v6.5h1.18v-6.5h2.05V8.97H73.6v1.16zm-2.12 6.5h1.18V8.96h-1.18v7.67zm-8.67-6.5h2.04v6.5h1.2v-6.5h2.04V8.97H62.8v1.16zm-5.25 6.5h4.5v-1.16H58.7v-2.1h3v-1.14h-3v-2.1h3.33V8.97h-4.5v7.66zm-1.18-4.2H52.6v1.14h2.65a2.17 2.17 0 0 1-.57 1.29 2.76 2.76 0 0 1-3.87 0 2.73 2.73 0 0 1-.81-2 2.73 2.73 0 0 1 .81-2.05 2.66 2.66 0 0 1 1.91-.8 2.3 2.3 0 0 1 1.91.84l.1.1.8-.83-.07-.1a3.18 3.18 0 0 0-1.19-.86 3.91 3.91 0 0 0-1.55-.32A3.77 3.77 0 0 0 50 10a3.85 3.85 0 0 0-1.2 2.8 3.88 3.88 0 0 0 1.14 2.85 3.81 3.81 0 0 0 2.78 1.15 3.63 3.63 0 0 0 2.78-1.14 3.52 3.52 0 0 0 .94-2.56 2.9 2.9 0 0 0 0-.58v-.1z" fill="#fff"/><path d="M11.38 10.48a2.39 2.39 0 0 0-.55 1.68V38.7a2.41 2.41 0 0 0 .55 1.69l.1.08 14.9-14.86v-.35L11.47 10.4z" fill="url(#a)"/><path d="M26.38 25.26v.35l5 4.95.12-.06 5.88-3.34c1.7-.95 1.7-2.5 0-3.46l-6-3.4z" fill="url(#b)"/><path d="M11.38 40.4a2 2 0 0 0 2.5.07l17.58-10-5.08-5.07z" fill="url(#c)"/><path d="M11.38 10.48l15 15 5.08-5.07-17.58-10a2.79 2.79 0 0 0-1.34-.4 1.58 1.58 0 0 0-1.16.48" fill="url(#d)"/></svg>