<svg xmlns="http://www.w3.org/2000/svg" viewBox="0 0 98.22 78.8"><defs><style>.a{fill:none;}.b{fill:#f7d839;}.c{fill:#f68282;}.d{fill:#8bdb68;}</style></defs><title>sandwhich</title><path class="a" d="M63.7,20,65,18.3a1.42,1.42,0,1,0-2.2-1.8l-1.3,1.7a1.43,1.43,0,0,0,.2,2A1.28,1.28,0,0,0,63.7,20Z" transform="translate(-0.81 -10.6)"/><path class="a" d="M52.5,22.3l1.3-1.7a1.42,1.42,0,0,0-2.2-1.8l-1.3,1.7a1.42,1.42,0,1,0,2.2,1.8Z" transform="translate(-0.81 -10.6)"/><path class="a" d="M45.7,17.8,47,16.1a1.42,1.42,0,1,0-2.2-1.8L43.5,16a1.43,1.43,0,0,0,.2,2A1.4,1.4,0,0,0,45.7,17.8Z" transform="translate(-0.81 -10.6)"/><path class="a" d="M42.9,29.2l1.3-1.7A1.42,1.42,0,0,0,42,25.7l-1.3,1.7a1.43,1.43,0,0,0,.2,2A1.4,1.4,0,0,0,42.9,29.2Z" transform="translate(-0.81 -10.6)"/><path class="a" d="M83.5,30.4l1.3-1.7a1.42,1.42,0,1,0-2.2-1.8l-1.3,1.7a1.43,1.43,0,0,0,.2,2A1.4,1.4,0,0,0,83.5,30.4Z" transform="translate(-0.81 -10.6)"/><path class="a" d="M74.8,22.3l1.3-1.7a1.42,1.42,0,1,0-2.2-1.8l-1.3,1.7a1.43,1.43,0,0,0,.2,2A1.4,1.4,0,0,0,74.8,22.3Z" transform="translate(-0.81 -10.6)"/><path class="a" d="M62.9,29.2l1.3-1.7A1.42,1.42,0,1,0,62,25.7l-1.3,1.7a1.43,1.43,0,0,0,.2,2A1.4,1.4,0,0,0,62.9,29.2Z" transform="translate(-0.81 -10.6)"/><path class="a" d="M34.4,22.3l1.3-1.7a1.42,1.42,0,0,0-2.2-1.8l-1.3,1.7a1.43,1.43,0,0,0,.2,2A1.4,1.4,0,0,0,34.4,22.3Z" transform="translate(-0.81 -10.6)"/><path class="a" d="M19.8,26.9l1.3-1.7a1.42,1.42,0,1,0-2.2-1.8l-1.3,1.7a1.42,1.42,0,1,0,2.2,1.8Z" transform="translate(-0.81 -10.6)"/><path class="a" d="M28,31.4l1.3-1.7a1.42,1.42,0,1,0-2.2-1.8l-1.3,1.7A1.42,1.42,0,0,0,28,31.4Z" transform="translate(-0.81 -10.6)"/><path class="b" d="M92.9,73.6H7.1a1.66,1.66,0,0,0-1.6,1.9A16,16,0,0,0,21.4,89.4H78.6A16.15,16.15,0,0,0,94.5,75.5,1.66,1.66,0,0,0,92.9,73.6Z" transform="translate(-0.81 -10.6)"/><path class="c" d="M89.8,52.2H10.2a9.3,9.3,0,0,0,0,18.6H89.7A9.28,9.28,0,0,0,99,61.5,9.14,9.14,0,0,0,89.8,52.2Z" transform="translate(-0.81 -10.6)"/><path class="b" d="M8.3,35H91.7a1.92,1.92,0,0,0,1.8-2.4,30.09,30.09,0,0,0-29-22h-29a30.09,30.09,0,0,0-29,22A1.87,1.87,0,0,0,8.3,35Zm73-6.3L82.6,27a1.42,1.42,0,1,1,2.2,1.8l-1.3,1.7a1.42,1.42,0,0,1-2,.2A1.66,1.66,0,0,1,81.3,28.7Zm-8.7-8.1,1.3-1.7a1.42,1.42,0,1,1,2.2,1.8l-1.3,1.7a1.42,1.42,0,0,1-2,.2A1.66,1.66,0,0,1,72.6,20.6ZM61.5,18.3l1.3-1.7A1.42,1.42,0,0,1,65,18.4L63.7,20a1.42,1.42,0,0,1-2,.2A1.3,1.3,0,0,1,61.5,18.3Zm-.8,9.1L62,25.7a1.42,1.42,0,1,1,2.2,1.8l-1.3,1.7a1.42,1.42,0,0,1-2,.2A1.66,1.66,0,0,1,60.7,27.4ZM50.3,20.6l1.3-1.7a1.42,1.42,0,0,1,2.2,1.8l-1.3,1.7a1.42,1.42,0,1,1-2.2-1.8Zm-6.8-4.5,1.3-1.7A1.42,1.42,0,1,1,47,16.2l-1.3,1.7a1.42,1.42,0,0,1-2,.2A1.66,1.66,0,0,1,43.5,16.1ZM40.7,27.4,42,25.7a1.42,1.42,0,0,1,2.2,1.8l-1.3,1.7a1.42,1.42,0,0,1-2,.2A1.66,1.66,0,0,1,40.7,27.4Zm-8.5-6.8,1.3-1.7a1.42,1.42,0,0,1,2.2,1.8l-1.3,1.7a1.42,1.42,0,0,1-2,.2A1.66,1.66,0,0,1,32.2,20.6Zm-6.4,9.1L27.1,28a1.42,1.42,0,1,1,2.2,1.8L28,31.4a1.42,1.42,0,0,1-2,.2A1.24,1.24,0,0,1,25.8,29.7Zm-8.2-4.5,1.3-1.7a1.42,1.42,0,1,1,2.2,1.8L19.8,27a1.42,1.42,0,0,1-2.2-1.8Z" transform="translate(-0.81 -10.6)"/><path class="d" d="M4.5,51a3.32,3.32,0,0,0,2.1-.7L12.7,46a5.86,5.86,0,0,1,6.8.1,13.22,13.22,0,0,0,15.4.3l.5-.4a5.86,5.86,0,0,1,6.8.1,13.06,13.06,0,0,0,15.4.2l.5-.4a5.86,5.86,0,0,1,6.8.1,13.06,13.06,0,0,0,15.4.2l.5-.4a5.86,5.86,0,0,1,6.8.1L93.1,50a3.72,3.72,0,1,0,4.4-6L92,39.9a13.06,13.06,0,0,0-15.4-.2l-.5.4a5.86,5.86,0,0,1-6.8-.1,13.06,13.06,0,0,0-15.4-.2l-.5.4a5.86,5.86,0,0,1-6.8-.1,13.06,13.06,0,0,0-15.4-.2l-.5.4a5.86,5.86,0,0,1-6.8-.1A13.06,13.06,0,0,0,8.5,40L2.4,44.3a3.6,3.6,0,0,0-.9,5.1A3.42,3.42,0,0,0,4.5,51Z" transform="translate(-0.81 -10.6)"/></svg>